<?xml version="1.0" encoding="iso-8859-1"?>
<!-- Generator: Adobe Illustrator 18.0.0, SVG Export Plug-In . SVG Version: 6.00 Build 0)  -->
<!DOCTYPE svg PUBLIC "-//W3C//DTD SVG 1.1//EN" "http://www.w3.org/Graphics/SVG/1.1/DTD/svg11.dtd">
<svg version="1.1" id="Capa_1" xmlns="http://www.w3.org/2000/svg" xmlns:xlink="http://www.w3.org/1999/xlink" x="0px" y="0px"
	 viewBox="0 0 374.32 374.32" style="enable-background:new 0 0 374.32 374.32;" xml:space="preserve">
<g>
	<path d="M52.773,183.76c0-66.6,50.554-122.206,115.288-130.02l-3.643,23.712l73.016-28.42L176.315,0l-3.86,25.131
		c-38.544,2.691-74.4,19.103-101.799,46.812c-29.63,29.963-45.947,69.674-45.947,111.817c0,30.37,8.593,59.899,24.851,85.396
		c15.815,24.804,38.124,44.723,64.514,57.602l12.309-25.222C80.978,279.377,52.773,234.248,52.773,183.76z"/>
	<path d="M324.761,105.165c-15.817-24.805-38.125-44.723-64.515-57.602l-12.309,25.222c45.404,22.159,73.61,67.288,73.61,117.776
		c0,66.602-50.554,122.207-115.29,130.02l3.642-23.712l-73.015,28.422l61.12,49.029l3.859-25.131
		c38.544-2.69,74.4-19.102,101.8-46.81c29.629-29.963,45.947-69.675,45.947-111.818
		C349.612,160.191,341.019,130.662,324.761,105.165z"/>
	<rect x="178.993" y="128.66" width="17.123" height="108.42"/>
	<path d="M209.506,155.268v56.152c0,16.801,10.875,27.24,28.383,27.24c12.848,0,20.93-4.191,25.82-8.436l0.039,6.855h14.941
		l0.008-81.813h-17.125v58.928c-3.176,4.4-8.705,9.818-20.066,9.818c-9.975,0-15.033-4.723-15.033-14.033v-54.713H209.506z"/>
	<path d="M165.12,237.08l0.01-24.367v-27.9c0-20.943-10.879-31.125-33.26-31.125c-29.875,0-33.1,19.756-33.1,28.248v0.736h16.668
		c0.164-10.57,4.908-14.91,16.275-14.91c11.906,0,16.203,4.371,16.289,16.672l-22.566,3.225
		c-7.375,1.018-29.813,4.121-29.813,25.918v1.438c0,14.365,10.646,23.646,27.123,23.646c10.84,0,20.316-3.102,27.328-8.846
		l-0.002,7.266H165.12z M148.004,214.201c-3.43,4.754-10.039,10.098-22.426,10.098c-11.58,0-12.83-7.096-12.83-10.15v-1.293
		c0-2.471,0-9.99,14.578-12.34l20.678-3.072V214.201z"/>
</g>
<g>
</g>
<g>
</g>
<g>
</g>
<g>
</g>
<g>
</g>
<g>
</g>
<g>
</g>
<g>
</g>
<g>
</g>
<g>
</g>
<g>
</g>
<g>
</g>
<g>
</g>
<g>
</g>
<g>
</g>
</svg>
