<?xml version="1.0" encoding="iso-8859-1"?>
<!-- Generator: Adobe Illustrator 18.0.0, SVG Export Plug-In . SVG Version: 6.00 Build 0)  -->
<!DOCTYPE svg PUBLIC "-//W3C//DTD SVG 1.1//EN" "http://www.w3.org/Graphics/SVG/1.1/DTD/svg11.dtd">
<svg version="1.1" id="Capa_1" xmlns="http://www.w3.org/2000/svg" xmlns:xlink="http://www.w3.org/1999/xlink" x="0px" y="0px"
	 viewBox="0 0 58.593 58.593" style="enable-background:new 0 0 58.593 58.593;" xml:space="preserve">
<path d="M58.452,19.188l-6.14-10.339c-0.003-0.005-0.009-0.008-0.012-0.013c-0.068-0.11-0.158-0.203-0.264-0.28
	c-0.017-0.013-0.033-0.025-0.051-0.037c-0.018-0.012-0.033-0.027-0.053-0.038L41.224,2.629c-0.364-0.199-0.814-0.152-1.131,0.119
	L5.83,32.163c-0.007,0.006-0.012,0.015-0.019,0.021c-0.013,0.012-0.023,0.026-0.035,0.039c-0.075,0.076-0.135,0.162-0.182,0.255
	c-0.007,0.013-0.019,0.021-0.025,0.034L0.088,44.736c-0.217,0.482-0.021,1.049,0.447,1.294l18.931,9.94
	c0.015,0.008,0.032,0.011,0.048,0.018c0.013,0.006,0.023,0.016,0.037,0.022c0.014,0.006,0.029,0.003,0.043,0.008
	c0.11,0.039,0.222,0.066,0.337,0.066c0.007,0.001,0.015,0,0.02,0c0.101,0,0.194-0.03,0.286-0.058
	c0.02-0.006,0.042-0.005,0.062-0.013c0.154-0.058,0.285-0.151,0.392-0.271l37.587-35.317C58.619,20.106,58.693,19.591,58.452,19.188
	z M2.297,44.697l4.694-10.468l11.337,4.872l0.538,14.296L2.297,44.697z M20.848,52.852L20.321,38.86l16.546-14.962l14.352-12.978
	l5.105,8.598L20.848,52.852z"/>
<g>
</g>
<g>
</g>
<g>
</g>
<g>
</g>
<g>
</g>
<g>
</g>
<g>
</g>
<g>
</g>
<g>
</g>
<g>
</g>
<g>
</g>
<g>
</g>
<g>
</g>
<g>
</g>
<g>
</g>
</svg>
