<?xml version="1.0" encoding="iso-8859-1"?>
<!-- Generator: Adobe Illustrator 19.0.0, SVG Export Plug-In . SVG Version: 6.00 Build 0)  -->
<svg version="1.1" id="Layer_1" xmlns="http://www.w3.org/2000/svg" xmlns:xlink="http://www.w3.org/1999/xlink" x="0px" y="0px"
	 viewBox="0 0 512 512" style="enable-background:new 0 0 512 512;" xml:space="preserve">
<g>
	<g>
		<g>
			<circle cx="51.2" cy="469.333" r="8.533"/>
			<circle cx="85.333" cy="469.333" r="8.533"/>
			<circle cx="119.467" cy="469.333" r="8.533"/>
			<circle cx="153.6" cy="469.333" r="8.533"/>
			<circle cx="187.733" cy="469.333" r="8.533"/>
			<circle cx="221.867" cy="469.333" r="8.533"/>
			<circle cx="256" cy="469.333" r="8.533"/>
			<circle cx="290.133" cy="469.333" r="8.533"/>
			<circle cx="324.267" cy="469.333" r="8.533"/>
			<circle cx="358.4" cy="469.333" r="8.533"/>
			<circle cx="392.533" cy="469.333" r="8.533"/>
			<circle cx="426.667" cy="469.333" r="8.533"/>
			<circle cx="460.8" cy="469.333" r="8.533"/>
			<path d="M494.933,435.2V331.759c0-13.562-10.997-24.559-24.559-24.559h-87.416c-13.562,0-24.559,10.997-24.559,24.559v94.908
				h-34.133v-94.908c0-13.562-10.997-24.559-24.559-24.559h-87.415c-13.562,0-24.559,10.997-24.559,24.559v94.908H153.6v-94.908
				c0-13.562-10.997-24.559-24.559-24.559H41.626c-13.562,0-24.559,10.997-24.559,24.559V435.2C6.704,442.985,0,455.376,0,469.333
				C0,492.896,19.104,512,42.667,512h426.667C492.896,512,512,492.896,512,469.333C512,455.376,505.296,442.985,494.933,435.2z
				 M375.467,331.759c0-4.136,3.356-7.492,7.492-7.492h87.416c4.136,0,7.492,3.356,7.492,7.492v94.908h-8.533h-93.867V331.759z
				 M204.8,331.759c0-4.136,3.356-7.492,7.492-7.492h87.415c4.136,0,7.492,3.356,7.492,7.492v94.908H204.8V331.759z M34.133,426.667
				v-94.908c0-4.136,3.356-7.492,7.492-7.492h87.415c4.136,0,7.492,3.356,7.492,7.492v94.908H42.667H34.133z M469.333,494.933
				H42.667c-14.137,0-25.6-11.463-25.6-25.6c0-14.137,11.463-25.6,25.6-25.6H153.6h34.133h136.533H358.4h110.933
				c14.137,0,25.6,11.463,25.6,25.6C494.933,483.471,483.471,494.933,469.333,494.933z"/>
			<path d="M390.091,261.976c3.301-3.364,3.249-8.767-0.115-12.067c-10.929-10.722-14.509-19.689-14.509-36.575
				c0-32.987,26.746-59.733,59.733-59.733s59.733,26.746,59.733,59.733c0,16.099-3.924,25.778-14.626,36.692
				c-3.3,3.365-3.247,8.768,0.118,12.067c3.365,3.3,8.768,3.247,12.067-0.118C506.335,247.859,512,233.885,512,213.333
				c0-39.527-29.871-72.07-68.267-76.317V8.533c0-4.713-3.82-8.533-8.533-8.533s-8.533,3.82-8.533,8.533v128.483
				c-38.396,4.247-68.267,36.79-68.267,76.317c0,21.366,5.343,34.747,19.624,48.758C381.388,265.392,386.791,265.34,390.091,261.976
				z"/>
			<path d="M48.758,193.709c3.3-3.364,3.249-8.767-0.115-12.067c-10.929-10.722-14.509-19.689-14.509-36.575
				c0-32.987,26.746-59.733,59.733-59.733c32.987,0,59.733,26.746,59.733,59.733c0,16.099-3.924,25.778-14.626,36.692
				c-3.3,3.365-3.247,8.768,0.118,12.067c3.365,3.3,8.768,3.247,12.067-0.118c13.842-14.116,19.507-28.089,19.507-48.641
				c0-39.527-29.871-72.07-68.267-76.317V8.533C102.4,3.82,98.579,0,93.867,0c-4.713,0-8.533,3.82-8.533,8.533V68.75
				c-38.396,4.247-68.267,36.79-68.267,76.317c0,21.366,5.343,34.747,19.624,48.758C40.055,197.125,45.458,197.074,48.758,193.709z"
				/>
		</g>
	</g>
</g>
<g>
</g>
<g>
</g>
<g>
</g>
<g>
</g>
<g>
</g>
<g>
</g>
<g>
</g>
<g>
</g>
<g>
</g>
<g>
</g>
<g>
</g>
<g>
</g>
<g>
</g>
<g>
</g>
<g>
</g>
</svg>
