<?xml version="1.0" encoding="iso-8859-1"?>
<!-- Uploaded to: SVG Repo, www.svgrepo.com, Generator: SVG Repo Mixer Tools -->
<svg height="800px" width="800px" version="1.1" id="Layer_1" xmlns="http://www.w3.org/2000/svg" xmlns:xlink="http://www.w3.org/1999/xlink" 
	 viewBox="0 0 512 512" xml:space="preserve">
<g>
	<g>
		<path style="fill:#010101;" d="M490.259,467.703h-36.96V158.981h35.873c11.958,0,21.741-9.783,21.741-21.741
			s-9.783-21.741-21.741-21.741h-57.614h-75.006V55.711c0-8.696-5.435-16.306-13.045-19.567L259.805,2.446
			c-5.435-2.174-10.87-2.174-16.306,0l-78.268,33.698c-7.609,3.261-13.045,10.871-13.045,19.567v59.788H79.355H21.741
			C9.783,115.499,0,125.282,0,137.24s9.783,21.741,21.741,21.741h35.873v308.722H21.741C9.783,467.703,0,477.486,0,489.444
			s9.783,21.741,21.741,21.741h57.614h127.185h97.834h127.185h57.614c11.958,0,22.828-9.783,22.828-21.741
			S502.217,467.703,490.259,467.703z M194.582,69.843l57.614-25.002l63.049,25.002v121.749H195.669h-1.087V69.843z M100.008,158.981
			h52.178v54.352c0,11.958,9.783,21.741,21.741,21.741h163.057c10.87,0,20.654-9.783,19.567-21.741v-54.352h53.265v308.722h-83.703
			V330.735c0-11.958-9.783-21.741-21.741-21.741h-97.834c-11.958,0-21.741,9.783-21.741,21.741v136.968h-84.79V158.981z
			 M283.72,467.703h-55.44V352.476h55.44V467.703z"/>
	</g>
</g>
</svg>