<?xml version="1.0" encoding="iso-8859-1"?>
<!-- Generator: Adobe Illustrator 19.0.0, SVG Export Plug-In . SVG Version: 6.00 Build 0)  -->
<svg version="1.1" id="Capa_1" xmlns="http://www.w3.org/2000/svg" xmlns:xlink="http://www.w3.org/1999/xlink" x="0px" y="0px"
	 viewBox="0 0 485 485" style="enable-background:new 0 0 485 485;" xml:space="preserve">
<g>
	<path d="M462.243,0h-92.305l-16.321,196.671L227.5,130.326v59.84l-113.75-59.84v59.84L0,130.326V485h485V274.225L462.243,0z
		 M397.551,30h37.079l18.161,218.844l-70.331-36.999L397.551,30z M30,332.974h227.709V385H30V332.974z M395,455h-47.291V332.974H395
		V455z M455,455h-30V302.974H317.709V455H30v-40h257.709V302.974H30V180.006l113.75,59.84v-59.84l113.75,59.84v-59.84L455,283.904
		V455z"/>
</g>
<g>
</g>
<g>
</g>
<g>
</g>
<g>
</g>
<g>
</g>
<g>
</g>
<g>
</g>
<g>
</g>
<g>
</g>
<g>
</g>
<g>
</g>
<g>
</g>
<g>
</g>
<g>
</g>
<g>
</g>
</svg>
