<?xml version="1.0" encoding="iso-8859-1"?>
<!-- Generator: Adobe Illustrator 19.0.0, SVG Export Plug-In . SVG Version: 6.00 Build 0)  -->
<svg version="1.1" id="Capa_1" xmlns="http://www.w3.org/2000/svg" xmlns:xlink="http://www.w3.org/1999/xlink" x="0px" y="0px"
	 viewBox="0 0 471.305 471.305" style="enable-background:new 0 0 471.305 471.305;" xml:space="preserve">
<g>
	<path style="fill:#E9B264;" d="M168.75,200.554h-24.407l14.293,75.752c0.166,0.619,0.254,1.27,0.254,1.941h16.295
		c0-0.462,0.033-0.926,0.12-1.387l15.812-83.803H176.25C176.248,197.198,172.891,200.554,168.75,200.554z"/>
	<path style="fill:#E9B264;" d="M191.118,308.248H176.25c0,4.146-3.358,7.503-7.5,7.503h-24.407l14.293,75.752
		c0.166,0.62,0.254,1.272,0.254,1.945h16.295c0-0.463,0.033-0.928,0.12-1.391L191.118,308.248z"/>
	<path style="fill:#E9B264;" d="M319.518,315.751l13.245,70.197h121.994l-13.245-70.197H319.518z M356.134,345.751h-10
		c-4.142,0-7.5-3.358-7.5-7.5s3.358-7.5,7.5-7.5h10c4.142,0,7.5,3.358,7.5,7.5S360.276,345.751,356.134,345.751z M423.394,345.751
		h-37.26c-4.142,0-7.5-3.358-7.5-7.5s3.358-7.5,7.5-7.5h37.26c4.142,0,7.5,3.358,7.5,7.5S427.536,345.751,423.394,345.751z"/>
	<path style="fill:#E9B264;" d="M328.659,249.001l4.104,21.75h121.995l-13.245-70.197H319.518l3.579,18.968
		c0.768,4.07-1.908,7.991-5.978,8.76l2.78,14.74C323.971,242.255,327.891,244.932,328.659,249.001z M345.727,215.554h77.666
		c4.142,0,7.5,3.358,7.5,7.5s-3.358,7.5-7.5,7.5h-77.666c-4.142,0-7.5-3.358-7.5-7.5S341.585,215.554,345.727,215.554z"/>
	<path style="fill:#E9B264;" d="M231.93,85.357l13.245,70.197H367.17l-13.245-70.197H231.93z M335.803,115.357h-77.259
		c-4.142,0-7.5-3.358-7.5-7.5s3.358-7.5,7.5-7.5h77.259c4.142,0,7.5,3.358,7.5,7.5S339.945,115.357,335.803,115.357z"/>
	<path style="fill:#F59B45;" d="M317.498,270.751l-3.579-18.968c-0.768-4.07,1.909-7.993,5.979-8.761
		c0.002,0-2.779-14.74-2.779-14.74c-4.076,0.769-7.995-1.909-8.763-5.979l-4.104-21.749h-99.286l-13.245,70.197H317.498z"/>
	<polygon style="fill:#F59B45;" points="317.498,385.948 304.253,315.751 204.967,315.751 191.723,385.948 	"/>
	<polygon style="fill:#F59B45;" points="29.792,315.751 16.547,385.948 142.323,385.948 129.078,315.751 	"/>
	<polygon style="fill:#F59B45;" points="142.323,270.751 129.078,200.554 29.792,200.554 16.547,270.751 	"/>
	<polygon style="fill:#F59B45;" points="229.91,155.554 216.666,85.357 117.38,85.357 104.135,155.554 	"/>
	<path style="fill:#34150C;" d="M144.343,315.751h24.407c4.142,0,7.5-3.358,7.5-7.5c-0.002-4.144-3.359-7.5-7.5-7.5H23.575
		c-3.606,0-6.701,2.566-7.37,6.109L0.13,392.057c-0.414,2.194,0.171,4.458,1.596,6.177s3.542,2.713,5.774,2.713h143.87
		c4.162,0,7.52-3.358,7.52-7.5c0-0.673-0.088-1.325-0.254-1.945L144.343,315.751z M16.547,385.948l13.245-70.197h99.286
		l13.245,70.197H16.547z"/>
	<path style="fill:#34150C;" d="M455.1,306.86c-0.669-3.543-3.764-6.109-7.37-6.109H198.75c-3.606,0-6.701,2.566-7.37,6.109
		l-0.262,1.387l-15.813,83.81c-0.087,0.462-0.12,0.928-0.12,1.391c0,1.733,0.592,3.43,1.716,4.787
		c1.425,1.719,3.542,2.713,5.774,2.713h281.129c2.232,0,4.349-0.995,5.774-2.713s2.01-3.983,1.596-6.177L455.1,306.86z
		 M304.253,315.751l13.245,70.197H191.723l13.245-70.197H304.253z M332.763,385.948l-13.245-70.197h121.994l13.245,70.197H332.763z"
		/>
	<path style="fill:#FFFFFF;" d="M423.394,330.751h-37.26c-4.142,0-7.5,3.358-7.5,7.5s3.358,7.5,7.5,7.5h37.26
		c4.142,0,7.5-3.358,7.5-7.5S427.536,330.751,423.394,330.751z"/>
	<path style="fill:#FFFFFF;" d="M356.134,330.751h-10c-4.142,0-7.5,3.358-7.5,7.5s3.358,7.5,7.5,7.5h10c4.142,0,7.5-3.358,7.5-7.5
		S360.276,330.751,356.134,330.751z"/>
	<path style="fill:#34150C;" d="M7.5,285.751h143.87c4.162,0,7.52-3.358,7.52-7.5c0-0.675-0.089-1.326-0.254-1.945l-14.293-75.752
		h24.407c4.141,0,7.498-3.356,7.5-7.496c0-4.146-3.358-7.504-7.5-7.504H23.575c-3.606,0-6.702,2.566-7.37,6.109L0.13,276.86
		c-0.414,2.194,0.171,4.458,1.596,6.177S5.268,285.751,7.5,285.751z M129.078,200.554l13.245,70.197H16.547l13.245-70.197H129.078z"
		/>
	<path style="fill:#FFFFFF;" d="M345.727,230.554h77.666c4.142,0,7.5-3.358,7.5-7.5s-3.358-7.5-7.5-7.5h-77.666
		c-4.142,0-7.5,3.358-7.5,7.5S341.585,230.554,345.727,230.554z"/>
	<path style="fill:#34150C;" d="M175.185,278.248c0,1.735,0.591,3.433,1.716,4.79c1.425,1.719,3.542,2.713,5.774,2.713h281.129
		c2.232,0,4.349-0.995,5.774-2.713s2.01-3.983,1.596-6.177L455.1,191.663c-0.669-3.543-3.764-6.109-7.37-6.109l-248.98,0
		c-3.606,0-6.701,2.566-7.37,6.109l-0.263,1.394l-15.812,83.803C175.218,277.322,175.185,277.786,175.185,278.248z M304.253,200.554
		l4.104,21.749c0.768,4.07,4.687,6.748,8.761,5.979c4.071-0.77,6.747-4.691,5.979-8.761l-3.579-18.968h121.995l13.245,70.197
		H332.763l-4.104-21.75c-0.768-4.07-4.689-6.746-8.759-5.98c-4.072,0.768-6.749,4.691-5.981,8.761l3.579,18.968H191.723
		l13.245-70.197H304.253z"/>
	<path style="fill:#FFFFFF;" d="M335.803,100.357h-77.259c-4.142,0-7.5,3.358-7.5,7.5s3.358,7.5,7.5,7.5h77.259
		c4.142,0,7.5-3.358,7.5-7.5S339.945,100.357,335.803,100.357z"/>
	<path style="fill:#34150C;" d="M95.087,170.554h281.13c2.232,0,4.349-0.995,5.774-2.713s2.01-3.983,1.596-6.177l-16.075-85.197
		c-0.669-3.543-3.764-6.109-7.37-6.109h-137.26h-111.72c-3.606,0-6.701,2.566-7.37,6.109l-16.075,85.197
		c-0.414,2.194,0.171,4.458,1.596,6.177C90.738,169.559,92.855,170.554,95.087,170.554z M245.175,155.554L231.93,85.357h121.995
		l13.245,70.197H245.175z M216.666,85.357l13.245,70.197H104.135l13.245-70.197H216.666z"/>
</g>
<g>
</g>
<g>
</g>
<g>
</g>
<g>
</g>
<g>
</g>
<g>
</g>
<g>
</g>
<g>
</g>
<g>
</g>
<g>
</g>
<g>
</g>
<g>
</g>
<g>
</g>
<g>
</g>
<g>
</g>
</svg>
