<?xml version="1.0" encoding="utf-8"?><svg version="1.1" id="Layer_1" xmlns="http://www.w3.org/2000/svg" xmlns:xlink="http://www.w3.org/1999/xlink" x="0px" y="0px" viewBox="0 0 122.88 73.53" style="enable-background:new 0 0 122.88 73.53" xml:space="preserve"><g><path d="M0.21,63.74c3.32-8.22,7.15-16,11.37-23.45c4.21-7.44,8.83-14.57,13.74-21.49C33.18,7.7,37.61,0.48,42.97,0.02 c5.4-0.46,10.35,6.03,19.01,17.45l8.24,10.86l6.99-10.81l0.08-0.1c2-2.28,4.11-3.33,6.32-3.28c2.16,0.05,4.21,1.16,6.14,3.18 c6.34,6.17,12.2,14.86,17.65,22.3c5.45,7.44,10.5,15.46,15.19,23.98c0.6,1.09,0.2,2.46-0.89,3.06c-0.16,0.09-0.34,0.16-0.51,0.2 c-11.13,3.58-21.96,5.8-32.59,6.46c-10.49,0.65-20.78-0.23-30.96-2.82c-8.05,2.35-16.62,2.82-25.83,2.02 c-9.31-0.81-19.31-2.91-30.11-5.65c-1.21-0.3-1.94-1.53-1.64-2.73C0.1,64,0.15,63.86,0.21,63.74L0.21,63.74z M72.29,58.16 c1.01,0,1.82,0.82,1.82,1.82c0,1.01-0.82,1.82-1.82,1.82c-1.01,0-1.82-0.82-1.82-1.82C70.47,58.98,71.28,58.16,72.29,58.16 L72.29,58.16z M107.22,58.16c1.01,0,1.82,0.82,1.82,1.82c0,1.01-0.82,1.82-1.82,1.82c-1.01,0-1.82-0.82-1.82-1.82 C105.4,58.98,106.22,58.16,107.22,58.16L107.22,58.16z M48.47,58.06c0.5,0,0.91,0.41,0.91,0.91s-0.41,0.91-0.91,0.91 s-0.91-0.41-0.91-0.91S47.97,58.06,48.47,58.06L48.47,58.06z M63.63,54.31c0.5,0,0.91,0.41,0.91,0.91c0,0.5-0.41,0.91-0.91,0.91 c-0.5,0-0.91-0.41-0.91-0.91C62.72,54.72,63.12,54.31,63.63,54.31L63.63,54.31z M72.58,45.94c0.5,0,0.91,0.41,0.91,0.91 c0,0.5-0.41,0.91-0.91,0.91c-0.5,0-0.91-0.41-0.91-0.91C71.67,46.35,72.07,45.94,72.58,45.94L72.58,45.94z M75.75,35.69 c0.5,0,0.91,0.41,0.91,0.91s-0.41,0.91-0.91,0.91c-0.5,0-0.91-0.41-0.91-0.91S75.25,35.69,75.75,35.69L75.75,35.69z M84.18,40.64 c0.32,0,0.57,0.26,0.57,0.57c0,0.32-0.26,0.57-0.57,0.57c-0.32,0-0.57-0.26-0.57-0.57C83.6,40.9,83.86,40.64,84.18,40.64 L84.18,40.64z M94.95,36.99c0.5,0,0.91,0.41,0.91,0.91c0,0.5-0.41,0.91-0.91,0.91c-0.5,0-0.91-0.41-0.91-0.91 C94.04,37.4,94.45,36.99,94.95,36.99L94.95,36.99z M34.9,59.32c1.01,0,1.82,0.82,1.82,1.82c0,1.01-0.82,1.82-1.82,1.82 c-1.01,0-1.82-0.82-1.82-1.82C33.08,60.13,33.89,59.32,34.9,59.32L34.9,59.32z M22.77,39.44c0.5,0,0.91,0.41,0.91,0.91 c0,0.5-0.41,0.91-0.91,0.91c-0.5,0-0.91-0.41-0.91-0.91C21.86,39.85,22.27,39.44,22.77,39.44L22.77,39.44z M31.72,31.07 c0.5,0,0.91,0.41,0.91,0.91c0,0.5-0.41,0.91-0.91,0.91c-0.5,0-0.91-0.41-0.91-0.91C30.81,31.48,31.22,31.07,31.72,31.07 L31.72,31.07z M34.9,20.82c0.5,0,0.91,0.41,0.91,0.91s-0.41,0.91-0.91,0.91c-0.5,0-0.91-0.41-0.91-0.91S34.4,20.82,34.9,20.82 L34.9,20.82z M43.32,25.1c0.69,0,1.25,0.56,1.25,1.25c0,0.69-0.56,1.25-1.25,1.25c-0.69,0-1.25-0.56-1.25-1.25 C42.07,25.66,42.63,25.1,43.32,25.1L43.32,25.1z M54.1,22.12c0.5,0,0.91,0.41,0.91,0.91c0,0.5-0.41,0.91-0.91,0.91 c-0.5,0-0.91-0.41-0.91-0.91C53.19,22.53,53.6,22.12,54.1,22.12L54.1,22.12z M20.42,48.49c0.5,0,0.91,0.41,0.91,0.91 c0,0.5-0.41,0.91-0.91,0.91c-0.5,0-0.91-0.41-0.91-0.91C19.51,48.9,19.92,48.49,20.42,48.49L20.42,48.49z M35.58,48.49 c0.5,0,0.91,0.41,0.91,0.91c0,0.5-0.41,0.91-0.91,0.91c-0.5,0-0.91-0.41-0.91-0.91C34.67,48.9,35.07,48.49,35.58,48.49L35.58,48.49 z M50.73,48.49c0.5,0,0.91,0.41,0.91,0.91c0,0.5-0.41,0.91-0.91,0.91c-0.5,0-0.91-0.41-0.91-0.91 C49.82,48.9,50.23,48.49,50.73,48.49L50.73,48.49z M62.91,42.76c0.5,0,0.91,0.41,0.91,0.91c0,0.5-0.41,0.91-0.91,0.91 c-0.5,0-0.91-0.41-0.91-0.91C61.99,43.17,62.4,42.76,62.91,42.76L62.91,42.76z M89.76,58.45c1.01,0,1.82,0.82,1.82,1.82 c0,1.01-0.82,1.82-1.82,1.82c-1.01,0-1.82-0.82-1.82-1.82C87.93,59.27,88.75,58.45,89.76,58.45L89.76,58.45z M81.08,48.46 c1.01,0,1.82,0.82,1.82,1.82c0,1.01-0.82,1.82-1.82,1.82c-1.01,0-1.82-0.82-1.82-1.82C79.26,49.28,80.08,48.46,81.08,48.46 L81.08,48.46z M47.24,35.04c0.56,0,1.01,0.45,1.01,1.01s-0.45,1.01-1.01,1.01c-0.56,0-1.01-0.45-1.01-1.01S46.68,35.04,47.24,35.04 L47.24,35.04z M83.79,27.13c1.01,0,1.82,0.82,1.82,1.82c0,1.01-0.82,1.82-1.82,1.82c-1.01,0-1.82-0.82-1.82-1.82 C81.97,27.95,82.79,27.13,83.79,27.13L83.79,27.13z M43.11,12.28c1.01,0,1.82,0.82,1.82,1.82c0,1.01-0.82,1.82-1.82,1.82 c-1.01,0-1.82-0.82-1.82-1.82C41.28,13.09,42.1,12.28,43.11,12.28L43.11,12.28z M15.49,42.51c-3.73,6.59-7.15,13.44-10.17,20.63 c9.62,2.38,18.55,4.17,26.88,4.89c8.9,0.77,17.09,0.31,24.68-1.98c0.4-0.14,0.85-0.16,1.29-0.05c9.9,2.59,19.92,3.47,30.17,2.84 c9.44-0.58,19.08-2.46,28.97-5.46c-4.22-7.46-8.72-14.51-13.53-21.08c-5.31-7.25-11.02-15.76-17.17-21.74l-0.09-0.09 c-1.11-1.16-2.11-1.8-3-1.82c-0.84-0.02-1.77,0.53-2.81,1.71l-8.74,13.06c-0.12,0.15-0.26,0.29-0.41,0.41 c-0.99,0.75-2.4,0.56-3.15-0.43L58.4,20.19C50.76,10.12,46.65,4.24,43.34,4.52c-3.36,0.28-7.29,6.9-14.35,16.87 C24.2,28.14,19.66,35.15,15.49,42.51L15.49,42.51z"/></g></svg>